<svg width="103" height="79" viewBox="0 0 103 79" fill="none" xmlns="http://www.w3.org/2000/svg">
<path d="M102.3 33.9C91.4 30 80.6 32.1 70 34.2C69.3 34.3 68.5 34.5 67.8 34.6V4.1C67.9 1.8 66 0 63.8 0H5.1C2.8 0 1 1.8 1 4.1V42.2C1 44.5 2.8 46.3 5.1 46.3H37.6V76.4L38.3 76.6C42.7 78.2 47.2 78.8 51.6 78.8C58 78.8 64.4 77.6 70.6 76.4C80.8 74.4 91.4 72.4 101.7 76L103 76.5V34.1L102.3 33.9ZM5.1 2H63.7C64.8 2 65.8 3 65.8 4.1V9H3V4.1C3 3 4 2 5.1 2ZM37.6 34.1V44.3H5.1C4 44.3 3 43.3 3 42.2V17.7H65.9V34.9C57 36.5 47.9 37.6 39 34.5L37.6 34.1ZM101 73.6C90.6 70.4 80.2 72.4 70.2 74.4C60.2 76.3 49.8 78.4 39.6 75V36.8C50 40.1 60.4 38 70.4 36.1C80.4 34.2 90.8 32.1 101 35.5V73.6Z" fill="#A3A3FF"/>
<path d="M70.2 39.4C61.5 41.1 52.4 42.8 43.7 41.1L42.5 40.9V72.9L43.3 73.1C46 73.6 48.6 73.8 51.3 73.8C57.7 73.8 64.1 72.6 70.4 71.3C79.1 69.6 88.2 67.9 96.9 69.6L98.1 69.8V37.8L97.3 37.6C88.2 35.9 79 37.7 70.2 39.4ZM96.1 39.5V67.4C87.3 65.9 78.5 67.6 70 69.3C61.6 70.9 52.9 72.6 44.5 71.2V43.3C53.3 44.8 62.1 43.1 70.6 41.4C79 39.7 87.6 38.1 96.1 39.5Z" fill="#A3A3FF"/>
<path d="M59.4 55.3C59.4 61.3 64.3 66.1 70.2 66.1C76.1 66.1 81 61.2 81 55.3C81 49.4 76.1 44.5 70.2 44.5C64.3 44.5 59.4 49.3 59.4 55.3ZM79.1 55.3C79.1 60.2 75.1 64.1 70.3 64.1C65.4 64.1 61.5 60.1 61.5 55.3C61.5 50.5 65.5 46.5 70.3 46.5C75.1 46.5 79.1 50.4 79.1 55.3Z" fill="#A3A3FF"/>
<path d="M28.5 21.4H11.3C9.3 21.4 7.7 23 7.7 25V36.5C7.7 38.5 9.3 40.1 11.3 40.1H28.5C30.5 40.1 32.1 38.5 32.1 36.5V25.1C32.2 23.1 30.5 21.4 28.5 21.4ZM30.2 25.1V27H25.2L26.8 23.4H28.6C29.4 23.4 30.2 24.2 30.2 25.1ZM22.6 27.8V29.8H17.1V28L15.2 23.4H24.5L22.6 27.8ZM15.2 32.9H9.7V29.2H15.2V32.9ZM17.2 34.1V31.9H22.7V34L24.7 38.4H15.3L17.2 34.1ZM24.6 29H30.2V32.7H24.6V29ZM11.3 23.4H13L14.6 27.2H9.6V25.1C9.7 24.2 10.4 23.4 11.3 23.4ZM9.7 36.6V34.9H14.6L13.1 38.3H11.4C10.4 38.2 9.7 37.5 9.7 36.6ZM28.5 38.2H26.8L25.2 34.6H30.2V36.5C30.2 37.5 29.4 38.2 28.5 38.2Z" fill="#A3A3FF"/>
<path d="M59.1 22.1H37.6V24.1H59.1V22.1Z" fill="#A3A3FF"/>
<path d="M42 27H37.6V29H42V27Z" fill="#A3A3FF"/>
<path d="M49.1 27H44.7V29H49.1V27Z" fill="#A3A3FF"/>
<path d="M56.5 27H51.8V29H56.5V27Z" fill="#A3A3FF"/>
</svg>
