<svg width="86" height="83" viewBox="0 0 86 83" fill="none" xmlns="http://www.w3.org/2000/svg">
<path d="M36.8 65.7C37.7 65.5 38.4 64.9 38.8 64.1C39 63.8 39 63.5 39.1 63.2H85.5V0H1V63.2H13.1C13.2 63.6 13.3 63.9 13.4 64.3C13.8 65.1 14.6 65.7 15.5 65.9L16.8 66.2L11.3 77.3H18.1L22.3 82.9L25.4 76.7L28.5 82.9L32.7 77.3H39.6L34.2 66.6C34.3 66.5 34.5 66.4 34.7 66.4L36.8 65.7ZM19.1 75.3H14.5L18.5 67.2L19.3 68.9C19.7 69.7 20.3 70.3 21.1 70.6C21.5 70.7 21.9 70.8 22.3 70.8C22.4 70.8 22.5 70.8 22.6 70.8C22.9 70.8 23.3 70.7 23.6 70.6H23.7L24.5 70.2L25.7 69.7C26 69.5 26.4 69.5 26.8 69.7L25.6 72.2L25 73.3L24.4 74.4L22 79.1L19.1 75.3ZM32.6 65.4C32.4 65.7 32.2 65.9 32.1 66.2L32 66.5L31.3 68.2C31 68.8 30.2 69.1 29.6 68.9L27.6 68C27.1 67.8 26.7 67.7 26.2 67.7C26 67.7 25.9 67.7 25.7 67.8C25.4 67.9 25.1 67.9 24.8 68.1L23.6 68.6L22.8 69C22.2 69.3 21.4 69 21.1 68.4L20.2 66.5C20 66.1 19.8 65.8 19.5 65.5C19.2 65.2 19 65 18.7 64.9C18.5 64.8 18.3 64.7 18.1 64.7L17.7 64.6L16 63.9C15.7 63.8 15.4 63.6 15.2 63.3V63.2C15.1 62.9 15.1 62.7 15.2 62.4L15.3 62.2L15.7 61.2L15.9 60.6C16.2 59.5 16 58.5 15.4 57.7L14.6 56.7L14.2 56.2L13.9 56C13.7 55.8 13.6 55.5 13.7 55.2C13.7 55.1 13.7 55.1 13.7 55C13.8 54.7 14 54.4 14.3 54.2L16 53.2C16.9 52.6 17.4 51.7 17.6 50.5L17.7 48.4C17.7 48 17.9 47.7 18.1 47.6C18.4 47.4 18.8 47.3 19.2 47.3L21.1 47.6C22.3 47.8 23.4 47.4 24.1 46.5L25.3 45C25.6 44.6 26 44.5 26.4 44.5C26.6 44.5 26.9 44.6 27.2 44.9L28.5 46.5C29.2 47.4 30.2 47.7 31.5 47.6L33.4 47.3C33.8 47.2 34.1 47.3 34.4 47.5C34.7 47.7 34.8 48 34.9 48.4L35 50.4C35 51.5 35.6 52.6 36.7 53.1L38.4 54C38.7 54.2 38.9 54.4 38.9 54.8C38.9 54.9 38.9 55 38.9 55.1C38.9 55.3 38.8 55.6 38.7 55.8L38.4 56.1L38 56.3L37 57.6C36.4 58.5 36.3 59.5 36.6 60.5L36.9 61.2L37.3 62.2C37.4 62.5 37.4 62.9 37.2 63.1C37.2 63.1 37.2 63.1 37.1 63.2C36.9 63.5 36.7 63.6 36.3 63.7L34.1 64.4C33.8 64.5 33.6 64.6 33.4 64.7C33 65 32.8 65.2 32.6 65.4ZM3 2H83.6V61.2H39L38.5 59.8C38.4 59.5 38.5 59 38.6 58.8L39.9 57.2H79.4V19.8C79.5 12.2 73.3 6 65.7 6H7V57.1H12.3L13.7 58.9C13.9 59.2 14 59.5 13.8 59.9L13.4 61.1H3V2ZM40.6 54.5C40.4 53.6 39.9 52.8 39.1 52.4L37.4 51.5C37 51.3 36.8 50.9 36.8 50.4L36.7 48.3C36.6 47.4 36.2 46.5 35.5 46C34.8 45.4 33.9 45.2 33 45.4L31.2 45.7C30.5 45.8 30.2 45.5 30 45.3L28.8 43.7C28.2 43 27.4 42.6 26.5 42.6C25.5 42.6 24.5 43 23.8 43.8L22.6 45.3C22.3 45.7 21.8 45.7 21.5 45.7L19.6 45.4C18.6 45.2 17.6 45.5 16.9 46.1C16.2 46.7 15.8 47.5 15.8 48.4L15.7 50.4C15.6 50.9 15.4 51.3 15.1 51.5L13.4 52.4C12.6 52.8 12 53.6 11.8 54.5C11.8 54.7 11.8 54.9 11.7 55.1H9V8H65.7C72.2 8 77.5 13.3 77.5 19.8V55.2H40.7C40.7 54.9 40.6 54.7 40.6 54.5Z" fill="#A3A3FF"/>
<path d="M34.6 56.2C34.1 52 30.5 48.8 26.2 48.8C21.9 48.8 18.3 52.1 17.8 56.2C17.8 56.5 17.7 56.9 17.7 57.2C17.7 58.6 18.1 60 18.7 61.2C18.9 61.6 19.1 61.9 19.3 62.2C19.6 62.6 19.8 62.9 20.1 63.2C21.6 64.7 23.8 65.7 26.1 65.7C28.4 65.7 30.6 64.7 32.1 63.2C32.4 62.9 32.7 62.6 32.9 62.2C33.1 61.9 33.3 61.6 33.5 61.2C34.1 60 34.5 58.7 34.5 57.2C34.7 56.9 34.7 56.5 34.6 56.2ZM30.3 62.2C29.8 62.6 29.2 62.9 28.6 63.2C27.8 63.5 27 63.7 26.1 63.7C25.2 63.7 24.4 63.5 23.6 63.2C23 62.9 22.4 62.6 21.9 62.2C21.5 61.9 21.2 61.6 20.9 61.2C20 60.1 19.5 58.7 19.5 57.2C19.5 56.8 19.5 56.5 19.6 56.2C20.1 53.1 22.8 50.8 26 50.8C29.2 50.8 31.9 53.2 32.4 56.2C32.5 56.5 32.5 56.9 32.5 57.2C32.5 58.7 32 60.1 31.1 61.2C31 61.6 30.7 61.9 30.3 62.2Z" fill="#A3A3FF"/>
<path d="M64.5 28.9H22V30.9H64.5V28.9Z" fill="#A3A3FF"/>
<path d="M53.4 34.9H33.3V36.9H53.4V34.9Z" fill="#A3A3FF"/>
<path d="M56.5 15.8H30.1V23.3H56.5V15.8Z" fill="#A3A3FF"/>
<path d="M72 47.1C70.3 47.1 69.9 46.6 69.5 46C69 45.4 68.4 44.5 66.7 44.5C65.2 44.5 64.2 45.8 63.2 47C62.9 47.4 62.5 47.9 62.2 48.2C61.7 48.7 61.2 49.1 60.7 49.1C60.4 49.1 60.2 48.9 59.9 48.3C59.8 48 59.7 47.6 59.6 47.1C59.2 45.7 58.7 43.5 56.5 43.5C53.6 43.5 52.3 47.6 52.1 48.1C51.9 48.6 52.2 49.2 52.8 49.3C53.3 49.5 53.9 49.2 54 48.6C54 48.5 54.1 48.4 54.1 48.3C54.5 47.2 55.4 45.5 56.5 45.5C57.1 45.5 57.3 45.9 57.7 47.6C57.8 47.8 57.8 48.1 57.9 48.3C58.3 49.6 58.9 51.1 60.8 51.1C62.7 51.1 63.9 49.5 64.9 48.2C65.5 47.4 66.2 46.5 66.8 46.5C67.4 46.5 67.6 46.7 67.9 47.2C68.2 47.5 68.4 47.9 68.8 48.2C69.5 48.8 70.4 49.2 72.1 49.2C72.7 49.2 73.1 48.8 73.1 48.2C73.1 47.6 72.6 47.1 72 47.1Z" fill="#A3A3FF"/>
</svg>
