<svg width="101" height="78" viewBox="0 0 101 78" fill="none" xmlns="http://www.w3.org/2000/svg">
<g clip-path="url(#clip0_3_19)">
<path d="M96.7 42.9H41C39.1 42.9 37.7 41.4 37.7 39.6V4.3C37.7 2.5 39.1 1 41 1H96.7C98.6 1 100 2.5 100 4.3V39.6C99.9 41.4 98.4 42.9 96.7 42.9Z" fill="white"/>
<path d="M94.3 16.4H78.1V36.8H94.3V16.4Z" fill="white"/>
<path d="M53.8 7.2H43.3V15.6H53.8V7.2Z" fill="white"/>
<path d="M96.7 0H41C38.6 0 36.7 1.9 36.7 4.3V8.4L20.9 16.7C17.3 18.7 14.6 21.9 13.5 25.8C13.5 25.8 1.8 64.5 0.2 69.7C-1.4 74.9 16.9 80.1 18.2 75.5C19.6 71 22.6 64.2 31 60.3C34.8 58.2 38.1 55.2 40.5 51.5L45.4 43.8H96.8C99.1 43.8 101 41.9 101.1 39.6V4.3C101 1.9 99.1 0 96.7 0ZM33.8 36.1C33.7 36 33.8 36 33.8 36.1C30.6 34.3 29.1 30.6 30.1 27.2L30.2 26.8C30.7 25 31.8 23.6 33.2 22.6L36.7 20.2V36.5C35.8 36.8 34.9 36.7 33.8 36.1ZM96.7 41.9H46.5L54.3 29.6C55.5 27.8 54.2 25.5 52 25.5C49.4 25.5 46.1 26.3 43.8 29C41.6 31.6 40.1 33.9 38.6 35.2V4.3C38.7 3 39.7 2 41 2H96.7C98 2 99 3 99 4.3V39.6C98.9 40.9 97.9 41.9 96.7 41.9Z" fill="#A3A3FF"/>
<path d="M77.1 37.7H95.3V15.4H77.1V37.7ZM93.3 17.4V32.7C92.2 31.5 90.8 30.6 89.2 30C90.5 28.5 91.3 26.3 91.3 24.5C91.3 21.6 89 19.2 86.2 19.2C83.3 19.2 81.1 21.5 81.1 24.5C81.1 26.2 81.9 28.5 83.2 30C81.6 30.5 80.2 31.4 79.1 32.7V17.4H93.3Z" fill="#A3A3FF"/>
<path d="M69.9 15.5H59.8V17.5H69.9V15.5Z" fill="#A3A3FF"/>
<path d="M63 25.6H59.8V27.6H63V25.6Z" fill="#A3A3FF"/>
<path d="M65.4 30.6H59.8V32.6H65.4V30.6Z" fill="#A3A3FF"/>
<path d="M63.6 35.7H59.8V37.7H63.6V35.7Z" fill="#A3A3FF"/>
<path d="M71.9 20.5H59.8V22.5H71.9V20.5Z" fill="#A3A3FF"/>
<path d="M94.3 6.3H59.8V8.3H94.3V6.3Z" fill="#A3A3FF"/>
<path d="M42.3 16.6H54.8V6.2H42.3V16.6ZM46.4 11.4L44.4 13.3V9.5L46.4 11.4ZM45.9 14.6L48.3 12.4H52.9V14.6H45.9V14.6ZM52.8 10.4H48.2L45.8 8.2H52.7V10.4H52.8Z" fill="#A3A3FF"/>
</g>
<defs>
<clipPath id="clip0_3_19">
<rect width="101" height="78" fill="white"/>
</clipPath>
</defs>
</svg>
