<svg width="86" height="85" viewBox="0 0 86 85" fill="none" xmlns="http://www.w3.org/2000/svg">
<path d="M8.20001 35.5H27.8V15.9H8.20001V35.5ZM24.3 22.2L16.4 30.1L12.3 25.9L13.7 24.5L16.4 27.3L22.9 20.8L24.3 22.2Z" fill="#A3A3FF"/>
<path d="M8.20001 60.6H27.8V41H8.20001V60.6ZM10.2 43H25.8V58.6H10.2V43Z" fill="#A3A3FF"/>
<path d="M85.2 74C84.9 73.4 84.4 72.4 83.9 71.2C79.9 62 83.4 57.7 77 45.3L76.5 44.4L71.2 34.5C70.2 32.7 67.9 32 66.1 32.9C64.6 33.7 63.8 35.5 64.2 37.1L62.7 34.2C61.6 32.2 59.2 31.5 57.2 32.5C55.2 33.6 54.5 36 55.5 38L54.3 35.7C53.2 33.7 50.8 33 48.8 34C46.8 35.1 46.1 37.5 47.1 39.5L49.1 43.2L44.9 35.5V6.4C44.9 2.9 42 0 38.5 0H7.4C3.9 0 1 2.9 1 6.4V70.8C1 74.3 3.9 77.2 7.4 77.2H38.5C41.9 77.2 44.8 74.4 44.9 70.9V69C47.6 71.9 51.5 73.5 54.5 74.4C62.8 77 65 79.9 66.9 83.5C69.2 87.8 87.6 78.9 85.2 74ZM31.4 27.8L42.7 49C38.4 45.9 33.1 47.9 35.2 51.8C37.8 56.8 40.5 61.7 42.9 66.1V70.8C42.8 73.2 40.8 75.1 38.5 75.1H7.4C4.9 75.1 3 73.2 3 70.7V6.4C3 3.9 4.9 2 7.4 2H38.5C41 2 42.9 3.9 42.9 6.4V31.9L38.6 24C37.5 22 35.1 21.3 33.1 22.3C31.1 23.4 30.4 25.8 31.4 27.8Z" fill="#A3A3FF"/>
<path d="M36.1 9.2C36.9 9.2 37.5 8.6 37.5 7.8C37.5 7 36.9 6.4 36.1 6.4C35.3 6.4 34.7 7 34.7 7.8C34.7 8.6 35.3 9.2 36.1 9.2Z" fill="#A3A3FF"/>
<path d="M29.9 6.4H26.7C25.9 6.4 25.3 7 25.3 7.8C25.3 8.6 25.9 9.2 26.7 9.2H29.9C30.7 9.2 31.3 8.6 31.3 7.8C31.3 7 30.7 6.4 29.9 6.4Z" fill="#A3A3FF"/>
</svg>
