<?xml version="1.0" encoding="utf-8"?>
<!-- Generator: Adobe Illustrator 24.1.3, SVG Export Plug-In . SVG Version: 6.00 Build 0)  -->
<svg version="1.1" id="Layer_1" xmlns="http://www.w3.org/2000/svg" xmlns:xlink="http://www.w3.org/1999/xlink" x="0px" y="0px"
	 viewBox="0 0 40 40" style="enable-background:new 0 0 40 40;" xml:space="preserve">
<style type="text/css">
	.st0{fill:#797AFF;}
</style>
<g>
	<path class="st0" d="M20,40C9,40,0,31,0,20S9,0,20,0c11,0,20,9,20,20S31,40,20,40z M20,2C10.1,2,2,10.1,2,20s8.1,18,18,18
		c9.9,0,18-8.1,18-18S29.9,2,20,2z"/>
</g>
<g>
	<path class="st0" d="M27.3,16.7h-2v-3.5c0-2.9-2.4-5.3-5.3-5.3s-5.3,2.4-5.3,5.3v3.5h-1.9c-0.3,0-0.6,0.2-0.6,0.6v11.3
		c0,0.3,0.2,0.6,0.6,0.6h14.5c0.3,0,0.6-0.2,0.6-0.6V17.2C27.9,16.9,27.6,16.7,27.3,16.7z M20.7,23.3v2.6h-1.3v-2.6
		c-0.6-0.2-1.1-0.9-1.1-1.7c0-1,0.8-1.8,1.8-1.8c1,0,1.8,0.8,1.8,1.8C21.8,22.4,21.3,23.1,20.7,23.3z M17.2,16.7v-3.5
		c0-1.6,1.3-2.8,2.8-2.8c1.6,0,2.8,1.3,2.8,2.8v3.5H17.2z"/>
</g>
</svg>
