<?xml version="1.0" encoding="utf-8"?>
<!-- Generator: Adobe Illustrator 24.1.3, SVG Export Plug-In . SVG Version: 6.00 Build 0)  -->
<svg version="1.1" id="Layer_1" xmlns="http://www.w3.org/2000/svg" xmlns:xlink="http://www.w3.org/1999/xlink" x="0px" y="0px"
	 viewBox="0 0 40 40" style="enable-background:new 0 0 40 40;" xml:space="preserve">
<style type="text/css">
	.st0{fill:#797AFF;}
</style>
<g>
	<path class="st0" d="M20,40C9,40,0,31,0,20S9,0,20,0c11,0,20,9,20,20S31,40,20,40z M20,2C10.1,2,2,10.1,2,20s8.1,18,18,18
		c9.9,0,18-8.1,18-18S29.9,2,20,2z"/>
</g>
<g>
	<path class="st0" d="M19.2,10l-7.3,12.3c-0.2,0.3,0,0.7,0.4,0.7h7.3c0.2,0,0.5,0.2,0.5,0.5v6.5c0,0.5,0.6,0.6,0.9,0.2l7.3-12.3
		c0.2-0.3,0-0.7-0.4-0.7h-7.3c-0.2,0-0.5-0.2-0.5-0.5v-6.5C20,9.8,19.4,9.6,19.2,10z"/>
</g>
</svg>
