<?xml version="1.0" encoding="utf-8"?>
<!-- Generator: Adobe Illustrator 24.1.3, SVG Export Plug-In . SVG Version: 6.00 Build 0)  -->
<svg version="1.1" id="Layer_1" xmlns="http://www.w3.org/2000/svg" xmlns:xlink="http://www.w3.org/1999/xlink" x="0px" y="0px"
	 viewBox="0 0 40 40" style="enable-background:new 0 0 40 40;" xml:space="preserve">
<style type="text/css">
	.st0{fill:#797AFF;}
</style>
<g>
	<path class="st0" d="M20,40C9,40,0,31,0,20S9,0,20,0c11,0,20,9,20,20S31,40,20,40z M20,2C10.1,2,2,10.1,2,20s8.1,18,18,18
		c9.9,0,18-8.1,18-18S29.9,2,20,2z"/>
</g>
<g>
	<path class="st0" d="M20,25c2.5,0,4.6-2,4.6-4.6s-2-4.6-4.6-4.6s-4.6,2-4.6,4.6S17.5,25,20,25z"/>
</g>
<g>
	<path class="st0" d="M30.2,19.8c0.6-0.8,0.4-2-0.6-2.5l-1.3-0.7c-0.6-0.3-0.9-0.9-0.9-1.4l-0.1-1.7c0-1-1-1.8-2-1.7L23.9,12
		c-0.6,0.1-1.2-0.1-1.7-0.6l-1-1.2c-0.7-0.8-1.9-0.8-2.6,0l-1,1.2c-0.4,0.5-1,0.7-1.7,0.6l-1.5-0.2c-1-0.2-2,0.6-2,1.7l-0.1,1.7
		c0,0.6-0.3,1.1-0.9,1.4l-1.3,0.7c-0.9,0.6-1.1,1.7-0.6,2.5l1,1.4c0.3,0.5,0.4,1,0.2,1.6l-0.5,1.4c-0.3,0.9,0.2,2,1.2,2.2l1.7,0.4
		c0.6,0.2,0.9,0.5,1.2,1l0.6,1.5c0.4,0.9,1.4,1.3,2.4,0.9l1.5-0.8c0.5-0.2,1-0.2,1.5,0l1.5,0.8c0.9,0.5,2,0,2.4-0.9l0.6-1.5
		c0.2-0.5,0.6-0.9,1.2-1l1.7-0.4c0.9-0.2,1.5-1.3,1.2-2.2l-0.5-1.4c-0.2-0.6-0.1-1.1,0.2-1.6L30.2,19.8z M20,26.7
		c-3.5,0-6.3-2.8-6.3-6.3c0-3.5,2.8-6.3,6.3-6.3s6.3,2.8,6.3,6.3C26.3,23.9,23.5,26.7,20,26.7z"/>
</g>
</svg>
