<?xml version="1.0" encoding="utf-8"?>
<!-- Generator: Adobe Illustrator 24.1.3, SVG Export Plug-In . SVG Version: 6.00 Build 0)  -->
<svg version="1.1" id="Layer_1" xmlns="http://www.w3.org/2000/svg" xmlns:xlink="http://www.w3.org/1999/xlink" x="0px" y="0px"
	 viewBox="0 0 40 40" style="enable-background:new 0 0 40 40;" xml:space="preserve">
<style type="text/css">
	.st0{fill:#797AFF;}
</style>
<g>
	<path class="st0" d="M20,40C9,40,0,31,0,20S9,0,20,0c11,0,20,9,20,20S31,40,20,40z M20,2C10.1,2,2,10.1,2,20s8.1,18,18,18
		c9.9,0,18-8.1,18-18S29.9,2,20,2z"/>
</g>
<g>
	<path class="st0" d="M26,27.1H14.1v-0.9c0-1.2,0.9-2.1,2.1-2.1h7.6c1.2,0,2.1,0.9,2.1,2.1V27.1z"/>
</g>
<g>
	<path class="st0" d="M26.8,27.9H13.3v-1.7c0-1.6,1.3-2.9,2.9-2.9h7.6c1.6,0,2.9,1.3,2.9,2.9V27.9z M14.9,26.3h10.3v-0.1
		c0-0.7-0.6-1.3-1.3-1.3h-7.7C15.4,25,14.9,25.5,14.9,26.3z"/>
</g>
<g>
	<path class="st0" d="M26,27.1H14.1v1.6H26V27.1z"/>
</g>
<g>
	<path class="st0" d="M26.8,29.5H13.3v-3.2h13.5V29.5z M14.9,27.9h10.3H14.9z"/>
</g>
<g>
	<path class="st0" d="M22.3,23.4h-4.6v0.8h4.6V23.4z"/>
</g>
<g>
	<path class="st0" d="M22.3,21.8c0-4.5,2.3-6.8,2.3-9.1c0-2.5-2-4.6-4.6-4.6s-4.6,2-4.6,4.6c0,2.3,2.3,4.6,2.3,9.1H22.3z"/>
</g>
</svg>
