<?xml version="1.0" encoding="utf-8"?>
<!-- Generator: Adobe Illustrator 24.1.3, SVG Export Plug-In . SVG Version: 6.00 Build 0)  -->
<svg version="1.1" id="Layer_1" xmlns="http://www.w3.org/2000/svg" xmlns:xlink="http://www.w3.org/1999/xlink" x="0px" y="0px"
	 viewBox="0 0 40 40" style="enable-background:new 0 0 40 40;" xml:space="preserve">
<style type="text/css">
	.st0{fill:#797AFF;}
</style>
<g>
	<path class="st0" d="M20,40C9,40,0,31,0,20S9,0,20,0c11,0,20,9,20,20S31,40,20,40z M20,2C10.1,2,2,10.1,2,20s8.1,18,18,18
		c9.9,0,18-8.1,18-18S29.9,2,20,2z"/>
</g>
<g>
	<path class="st0" d="M18,27.2l-6.8-6.7l2.8-2.8l3.9,4l8.9-8.9l2.8,2.8L18,27.2z"/>
</g>
</svg>
